Coordinates
version=1
nRows=24
nColumns=34
inDegrees=no

Units are S.I. units (second, meters, Newtons, ...)
If the header above contains a line with 'inDegrees', this indicates whether rotational values are in degrees (yes) or radians (no).

endheader
time	pelvis_tilt	pelvis_list	pelvis_rotation	pelvis_tx	pelvis_ty	pelvis_tz	hip_flexion_r	hip_adduction_r	hip_rotation_r	knee_angle_r	ankle_angle_r	subtalar_angle_r	mtp_angle_r	hip_flexion_l	hip_adduction_l	hip_rotation_l	knee_angle_l	ankle_angle_l	subtalar_angle_l	mtp_angle_l	lumbar_extension	lumbar_bending	lumbar_rotation	arm_flex_r	arm_add_r	arm_rot_r	elbow_flex_r	pro_sup_r	arm_flex_l	arm_add_l	arm_rot_l	elbow_flex_l	pro_sup_l
0	0.136416	-0.0359412	-0.0393694	-0.142594	0.970653	-0.571018	-0.135049	-0.118538	-0.290593	0.128551	0.232951	0.386851	-0.100428	-0.0961123	-0.243387	-0.502196	0.252046	0.311344	0.621837	-0.100428	-0.311667	0.0325204	0.000627504	-0.0707024	-0.261545	-0.118154	2.0114	1.44242	-0.0929896	-0.207176	-0.167848	2.00381	1.39531
0.01	0.135831	-0.0360764	-0.0393794	-0.142653	0.970848	-0.571018	-0.134243	-0.118214	-0.290038	0.128469	0.232442	0.385614	-0.100428	-0.0954121	-0.243519	-0.502328	0.251998	0.311148	0.621893	-0.100428	-0.311456	0.0329303	0.000388745	-0.0700969	-0.262585	-0.116978	2.01112	1.44511	-0.0925839	-0.206916	-0.167387	2.00419	1.39167
0.02	0.135215	-0.0362197	-0.0394368	-0.142728	0.971038	-0.571008	-0.133389	-0.117865	-0.28953	0.128355	0.231922	0.384505	-0.100427	-0.0947076	-0.243643	-0.502434	0.251854	0.310888	0.621948	-0.100428	-0.311296	0.0333351	0.000220705	-0.06941	-0.263649	-0.115841	2.01089	1.44746	-0.0920836	-0.206686	-0.166862	2.00463	1.38805
0.03	0.134568	-0.0363715	-0.0395407	-0.142817	0.971223	-0.570988	-0.132486	-0.117489	-0.289068	0.128208	0.231393	0.383526	-0.100427	-0.0939946	-0.243759	-0.502519	0.251621	0.310564	0.622004	-0.100427	-0.311185	0.0337351	0.000123121	-0.0686416	-0.264736	-0.114742	2.01073	1.44945	-0.091488	-0.20649	-0.16627	2.00515	1.38449
0.04	0.133881	-0.0365341	-0.0396876	-0.142924	0.971404	-0.570957	-0.131528	-0.117083	-0.288658	0.128027	0.230857	0.382679	-0.100427	-0.0932565	-0.243881	-0.502596	0.251321	0.310188	0.622059	-0.100427	-0.311117	0.0341327	9.46953e-05	-0.0677924	-0.265841	-0.113687	2.01063	1.45108	-0.0907959	-0.206338	-0.165609	2.00573	1.38106
0.05	0.13314	-0.0367134	-0.0398705	-0.143047	0.971578	-0.570913	-0.130501	-0.116637	-0.288299	0.127807	0.230313	0.381958	-0.100427	-0.0924554	-0.244032	-0.502693	0.250998	0.309776	0.622114	-0.100427	-0.311072	0.0345355	0.000131889	-0.066864	-0.266958	-0.112681	2.01059	1.4523	-0.0900056	-0.206242	-0.164881	2.00635	1.37792
0.06	0.132316	-0.03692	-0.0400787	-0.143189	0.971743	-0.570856	-0.12938	-0.116135	-0.287983	0.127544	0.229761	0.38134	-0.100427	-0.0915283	-0.244256	-0.502852	0.250725	0.309358	0.62217	-0.100427	-0.311021	0.0349588	0.000227609	-0.0658585	-0.26808	-0.111725	2.01061	1.45311	-0.0891167	-0.206212	-0.164095	2.00699	1.37525
0.07	0.13137	-0.0371679	-0.0402992	-0.14335	0.971895	-0.570784	-0.128128	-0.115555	-0.287695	0.127228	0.229193	0.380782	-0.100427	-0.0903936	-0.244604	-0.503126	0.25059	0.308967	0.622225	-0.100427	-0.310919	0.0354245	0.000370236	-0.0647772	-0.269206	-0.110818	2.01067	1.45354	-0.0881336	-0.206249	-0.163271	2.00761	1.3732
0.08	0.130259	-0.0374707	-0.0405183	-0.143532	0.972032	-0.570698	-0.126708	-0.114876	-0.287408	0.126851	0.228595	0.380223	-0.100427	-0.0889681	-0.245124	-0.503558	0.250678	0.308634	0.622281	-0.100427	-0.310718	0.0359572	0.00054283	-0.063618	-0.270335	-0.109956	2.01077	1.45363	-0.0870679	-0.206345	-0.162436	2.00816	1.3719
0.09	0.128949	-0.0378362	-0.040723	-0.143733	0.97215	-0.570598	-0.125089	-0.114083	-0.287092	0.126402	0.227951	0.379594	-0.100427	-0.0871908	-0.245842	-0.504163	0.251036	0.308377	0.622336	-0.100427	-0.310376	0.0365761	0.000723235	-0.0623751	-0.271464	-0.109131	2.01089	1.45348	-0.0859383	-0.206479	-0.161619	2.00861	1.3714
0.1	0.12742	-0.0382611	-0.0409022	-0.143955	0.972249	-0.570485	-0.123258	-0.113177	-0.286719	0.125874	0.227242	0.378831	-0.100427	-0.0850424	-0.246749	-0.504909	0.251653	0.308188	0.622391	-0.100427	-0.309871	0.0372882	0.000886915	-0.0610396	-0.272592	-0.10833	2.01101	1.45321	-0.0847657	-0.206628	-0.160841	2.00892	1.3717
0.11	0.125678	-0.0387332	-0.0410486	-0.144195	0.972328	-0.570359	-0.121225	-0.112173	-0.286266	0.125262	0.226453	0.377885	-0.100427	-0.0825485	-0.247802	-0.505729	0.252465	0.30804	0.622447	-0.100427	-0.309204	0.0380877	0.00101345	-0.0596034	-0.273719	-0.107539	2.0111	1.45291	-0.0835666	-0.206765	-0.160116	2.00907	1.37272
0.12	0.123744	-0.0392353	-0.041161	-0.144454	0.97239	-0.570222	-0.119011	-0.111091	-0.285718	0.124573	0.225576	0.376737	-0.100427	-0.079772	-0.248941	-0.506544	0.253373	0.307892	0.622502	-0.100427	-0.3084	0.0389602	0.00109308	-0.0580611	-0.274854	-0.106739	2.01116	1.45266	-0.0823476	-0.206869	-0.159447	2.00905	1.37437
0.13	0.121657	-0.039749	-0.041247	-0.144732	0.972438	-0.570075	-0.116649	-0.109962	-0.285073	0.123824	0.224617	0.375402	-0.100427	-0.0768003	-0.2501	-0.507285	0.254268	0.307701	0.622557	-0.100427	-0.3075	0.0398849	0.00113085	-0.0564106	-0.276017	-0.105907	2.01119	1.45249	-0.0811042	-0.206925	-0.158829	2.00886	1.37651
0.14	0.119464	-0.0402557	-0.0413241	-0.145027	0.972478	-0.569915	-0.114163	-0.108819	-0.284342	0.123055	0.223596	0.373928	-0.100427	-0.0737296	-0.251221	-0.507914	0.255051	0.307427	0.622613	-0.100427	-0.306562	0.0408359	0.00114638	-0.0546489	-0.277238	-0.105018	2.01121	1.4524	-0.079821	-0.206927	-0.158249	2.00853	1.37898
0.15	0.117212	-0.0407367	-0.0414198	-0.145343	0.972512	-0.569743	-0.111565	-0.1077	-0.283554	0.122334	0.222553	0.372397	-0.100427	-0.0706477	-0.252258	-0.508428	0.25565	0.307041	0.622668	-0.100427	-0.305646	0.041782	0.00116946	-0.052767	-0.278553	-0.104041	2.01123	1.45236	-0.0784759	-0.206878	-0.157694	2.00811	1.38158
0.16	0.114939	-0.0411743	-0.0415677	-0.145683	0.972543	-0.569553	-0.108838	-0.106649	-0.282759	0.121751	0.221545	0.370912	-0.100427	-0.0676176	-0.253183	-0.508852	0.256032	0.30653	0.622723	-0.100427	-0.304807	0.0426898	0.00123398	-0.0507473	-0.279993	-0.102948	2.01127	1.45234	-0.0770455	-0.206786	-0.157157	2.00768	1.38408
0.17	0.112664	-0.0415538	-0.0418015	-0.146049	0.972574	-0.569344	-0.105941	-0.105703	-0.282011	0.121412	0.220636	0.369575	-0.100427	-0.0646634	-0.253987	-0.509235	0.256207	0.305893	0.622779	-0.100427	-0.304077	0.0435286	0.00137267	-0.0485691	-0.281569	-0.101728	2.01135	1.45227	-0.0755099	-0.206668	-0.156636	2.00731	1.38624
0.18	0.110379	-0.0418692	-0.0421482	-0.146446	0.972602	-0.569109	-0.102808	-0.104879	-0.28135	0.12141	0.219877	0.368446	-0.100427	-0.0617613	-0.254687	-0.509628	0.256219	0.305144	0.622834	-0.100427	-0.303462	0.0442799	0.00161325	-0.0462161	-0.283275	-0.100389	2.01149	1.45211	-0.0738576	-0.20654	-0.156135	2.00707	1.38789
0.19	0.108052	-0.042121	-0.0426224	-0.146876	0.972626	-0.568847	-0.0993658	-0.104181	-0.28079	0.121814	0.219302	0.367532	-0.100427	-0.0588529	-0.25531	-0.510069	0.256126	0.3043	0.622889	-0.100427	-0.302932	0.0449375	0.00197396	-0.0436828	-0.285085	-0.0989555	2.0117	1.45181	-0.0720861	-0.206416	-0.155656	2.007	1.38894
0.2	0.105642	-0.0423113	-0.0432217	-0.14734	0.972641	-0.568556	-0.0955528	-0.1036	-0.280326	0.122652	0.21892	0.366802	-0.100427	-0.0558677	-0.255881	-0.510566	0.255979	0.303374	0.622944	-0.100427	-0.302442	0.0455042	0.00245737	-0.0409752	-0.286964	-0.0974646	2.012	1.45135	-0.0702025	-0.206314	-0.155192	2.00711	1.38935
0.21	0.103112	-0.042441	-0.0439235	-0.147837	0.972645	-0.568236	-0.0913399	-0.103123	-0.279947	0.123915	0.21872	0.366204	-0.100427	-0.0527429	-0.256413	-0.511094	0.255808	0.302372	0.622999	-0.100427	-0.301943	0.0459888	0.00304377	-0.0381073	-0.288877	-0.0959484	2.01239	1.45077	-0.0682225	-0.206253	-0.154726	2.00736	1.38912
0.22	0.100439	-0.0425136	-0.0446846	-0.148363	0.972635	-0.567889	-0.0867376	-0.102729	-0.279652	0.125551	0.218667	0.36568	-0.100427	-0.0494318	-0.256913	-0.511599	0.255625	0.301295	0.623055	-0.100427	-0.301392	0.0464084	0.0036893	-0.0350972	-0.2908	-0.0944261	2.01285	1.45014	-0.0661691	-0.206254	-0.154236	2.00774	1.38829
0.23	0.0976119	-0.0425416	-0.0454456	-0.148915	0.97261	-0.567518	-0.0817957	-0.102386	-0.279447	0.127473	0.218713	0.365172	-0.100427	-0.0459029	-0.257395	-0.512019	0.255443	0.300142	0.62311	-0.100427	-0.300758	0.0467919	0.00433094	-0.0319644	-0.292725	-0.0928974	2.01339	1.44955	-0.0640691	-0.206334	-0.153703	2.0082	1.38699
